<svg xmlns="http://www.w3.org/2000/svg" viewBox="0 0 65.93 65.93"><defs><style>.cls-1{fill:#5e6676;}</style></defs><g id="Capa_2" data-name="Capa 2"><g id="Capa_1-2" data-name="Capa 1"><g id="Grupo_782" data-name="Grupo 782"><rect id="Rectángulo_164" data-name="Rectángulo 164" class="cls-1" x="38.44" y="39.44" width="10.02" height="3.02" rx="1.51"/><path id="Trazado_166" data-name="Trazado 166" class="cls-1" d="M28.05,25.05a9.65,9.65,0,0,0,0,19.3h0a9.65,9.65,0,0,0,9.65-9.64h0a9.66,9.66,0,0,0-9.65-9.66Zm5.48,9.65A5.58,5.58,0,1,1,28,29.12h0A5.58,5.58,0,0,1,33.53,34.7Z"/><path id="Trazado_167" data-name="Trazado 167" class="cls-1" d="M46.92,24.05h-3.1a1.67,1.67,0,0,0,0,3.34h3.1a1.67,1.67,0,0,0,0-3.34Z"/><path id="Trazado_168" data-name="Trazado 168" class="cls-1" d="M33,0a33,33,0,1,0,33,33A33,33,0,0,0,33,0ZM19.24,18.52H25.5A.52.52,0,0,1,26,19v1.61a.52.52,0,0,1-.52.52H19.24a.52.52,0,0,1-.53-.52V19A.52.52,0,0,1,19.24,18.52ZM50.8,44.87h0a2.55,2.55,0,0,1-2.54,2.55H17.68a2.54,2.54,0,0,1-2.54-2.55V24.53h0A2.55,2.55,0,0,1,17.68,22H48.26a2.54,2.54,0,0,1,2.53,2.55h0Z"/></g></g></g></svg>