<svg xmlns="http://www.w3.org/2000/svg" viewBox="0 0 32.46 22.72"><defs><style>.cls-1{fill:#fff;}</style></defs><g id="Capa_2" data-name="Capa 2"><g id="Capa_1-2" data-name="Capa 1"><g id="jfO4Gp.tif"><g id="Grupo_9" data-name="Grupo 9"><path id="Trazado_5-2" data-name="Trazado 5-2" class="cls-1" d="M32.46,16.23A6.49,6.49,0,1,1,26,9.74a6.49,6.49,0,0,1,6.49,6.49Zm-5.41-2.08v-.81c0-.27-.09-.36-.34-.36H25.24c-.25,0-.35.1-.35.35,0,.53,0,1.07,0,1.6,0,.18-.06.22-.23.22h-1.6c-.24,0-.33.1-.33.34V17c0,.24.1.34.34.34.54,0,1.09,0,1.64,0,.14,0,.18,0,.18.18,0,.54,0,1.08,0,1.62,0,.27.09.37.36.37h1.44c.27,0,.36-.09.36-.36,0-.53,0-1.07,0-1.6,0-.18.06-.21.22-.21.54,0,1.08,0,1.62,0,.23,0,.33-.1.33-.33V15.5c0-.26-.09-.35-.35-.35H27.23c-.13,0-.18,0-.17-.17,0-.28,0-.56,0-.84Z"/><path id="Trazado_6-2" data-name="Trazado 6-2" class="cls-1" d="M18.37,13.48a7.67,7.67,0,0,0-.16,5.07,8.13,8.13,0,0,0,2.86,4.16H9a2.44,2.44,0,0,1-2.5-2.2,12.27,12.27,0,0,1,0-2.1,5.54,5.54,0,0,1,.38-1.74,5.91,5.91,0,0,1,3.7-3.43A5.52,5.52,0,0,1,12.7,13a3.14,3.14,0,0,1,.79.3,7.73,7.73,0,0,0,4.73.23Z"/><path id="Trazado_7-2" data-name="Trazado 7-2" class="cls-1" d="M16.24,0a5.68,5.68,0,1,1-5.67,5.68A5.69,5.69,0,0,1,16.24,0Z"/><path id="Trazado_8-2" data-name="Trazado 8-2" class="cls-1" d="M8.78,12.31a6.68,6.68,0,0,0-1.56,1.13,7.43,7.43,0,0,0-2,3.14A6.27,6.27,0,0,0,5,17.7c0,.13-.07.15-.17.15-1.08,0-2.15,0-3.23,0A1.64,1.64,0,0,1,0,16.24c0-.59,0-1.18,0-1.77a3.23,3.23,0,0,1,2.84-3.08c.38-.06,2.89-.05,3.76,0a3.09,3.09,0,0,1,2.09.86Z"/><path id="Trazado_9-2" data-name="Trazado 9-2" class="cls-1" d="M4.89,9.73A3.24,3.24,0,1,1,8.12,6.48h0A3.26,3.26,0,0,1,4.89,9.73Z"/></g></g></g></g></svg>