<svg xmlns="http://www.w3.org/2000/svg" viewBox="0 0 74.26 51.96"><defs><style>.cls-1{fill:#fff;}</style></defs><g id="Capa_2" data-name="Capa 2"><g id="Capa_1-2" data-name="Capa 1"><g id="Grupo_773" data-name="Grupo 773"><g id="oHAYNS.tif"><g id="Grupo_16" data-name="Grupo 16"><path id="Trazado_143-2" data-name="Trazado 143-2" class="cls-1" d="M37.11,52A26,26,0,1,1,63.11,26h0A26,26,0,0,1,37.12,52Zm.06-40.83H34.52a1.93,1.93,0,0,0-1.26.54,2.22,2.22,0,0,0-.52,2.13C32.89,15.42,34,26,34.11,27.67a2.21,2.21,0,0,0,2.14,2H38a2.13,2.13,0,0,0,2.18-2.06v-.06c.14-1.32,1-10.1,1.1-11.12s.18-2.19.31-3.28a1.93,1.93,0,0,0-1.76-2.06h-.24C38.77,11.17,38,11.13,37.17,11.13Zm-.07,29.7a3.71,3.71,0,1,0-3.68-3.74h0a3.71,3.71,0,0,0,3.68,3.73Z"/><path id="Trazado_144-2" data-name="Trazado 144-2" class="cls-1" d="M74.26,25.53a37.66,37.66,0,0,1-2,12.54,37.2,37.2,0,0,1-5.7,10.6,1.9,1.9,0,0,1-2.64.43,2.75,2.75,0,0,1-.26-.22c-.43-.36-.85-.73-1.27-1.1a1.87,1.87,0,0,1-.19-2.59A33.36,33.36,0,0,0,65.87,39,31.54,31.54,0,0,0,66.31,14a32.9,32.9,0,0,0-4.1-7.14,1.85,1.85,0,0,1,.11-2.62,1.57,1.57,0,0,1,.25-.2c.33-.27.65-.56,1-.84A1.94,1.94,0,0,1,66.27,3a1.9,1.9,0,0,1,.38.46,37,37,0,0,1,5.64,10.59,36.13,36.13,0,0,1,1.63,7A37.53,37.53,0,0,1,74.26,25.53Z"/><path id="Trazado_145-2" data-name="Trazado 145-2" class="cls-1" d="M0,25.66A37.57,37.57,0,0,1,7.63,3.42,1.89,1.89,0,0,1,10,2.94a10.67,10.67,0,0,1,2,1.69A1.8,1.8,0,0,1,11.91,7,28.79,28.79,0,0,0,10,10a31.51,31.51,0,0,0,1.86,34.85,2.1,2.1,0,0,1,.46,2.06,2.08,2.08,0,0,1-.66.86c-.4.35-.8.7-1.21,1a1.9,1.9,0,0,1-2.7-.12,1.86,1.86,0,0,1-.21-.28A41,41,0,0,1,3.89,42.5,36.7,36.7,0,0,1,.53,32.05,38,38,0,0,1,0,25.66Z"/></g></g></g></g></g></svg>