<svg xmlns="http://www.w3.org/2000/svg" viewBox="0 0 32.46 22.71"><defs><style>.cls-1{fill:#fff;}</style></defs><g id="Capa_2" data-name="Capa 2"><g id="Capa_1-2" data-name="Capa 1"><g id="oHAYNS.tif"><g id="Grupo_16" data-name="Grupo 16"><path id="Trazado_143-2" data-name="Trazado 143-2" class="cls-1" d="M16.22,22.71A11.36,11.36,0,1,1,27.59,11.37h0A11.35,11.35,0,0,1,16.23,22.71Zm0-17.85H15.09a.84.84,0,0,0-.55.24,1,1,0,0,0-.23.93c.07.71.55,5.32.6,6.06a1,1,0,0,0,.94.89h.75a.93.93,0,0,0,.95-.9v0c.06-.57.44-4.41.48-4.85s.08-1,.14-1.44a.85.85,0,0,0-.77-.9h-.11C17,4.88,16.6,4.86,16.25,4.86Zm0,13a1.62,1.62,0,1,0-1.61-1.63h0a1.62,1.62,0,0,0,1.61,1.63Z"/><path id="Trazado_144-2" data-name="Trazado 144-2" class="cls-1" d="M32.46,11.16a16.78,16.78,0,0,1-.89,5.48,16.07,16.07,0,0,1-2.49,4.63.82.82,0,0,1-1.15.19.58.58,0,0,1-.12-.1l-.56-.48a.82.82,0,0,1-.08-1.13,14.14,14.14,0,0,0,1.62-2.69A14.09,14.09,0,0,0,30,11a13.69,13.69,0,0,0-1-4.85A14.42,14.42,0,0,0,27.19,3a.82.82,0,0,1,0-1.15l.11-.08.42-.37A.84.84,0,0,1,29,1.32a.55.55,0,0,1,.17.2A16.38,16.38,0,0,1,32.31,9.2,16,16,0,0,1,32.46,11.16Z"/><path id="Trazado_145-2" data-name="Trazado 145-2" class="cls-1" d="M0,11.22A16.34,16.34,0,0,1,3.34,1.5a.81.81,0,0,1,1-.21A4.32,4.32,0,0,1,5.24,2a.79.79,0,0,1,0,1,13.62,13.62,0,0,0-.86,1.28,13.8,13.8,0,0,0,.81,15.24.83.83,0,0,1,0,1.18.41.41,0,0,1-.1.09l-.53.45a.84.84,0,0,1-1.18,0,.47.47,0,0,1-.09-.12A17.81,17.81,0,0,1,1.7,18.58,16.07,16.07,0,0,1,.23,14,16.33,16.33,0,0,1,0,11.22Z"/></g></g></g></g></svg>