<svg xmlns="http://www.w3.org/2000/svg" viewBox="0 0 45.2 45.2"><defs><style>.cls-1{opacity:0.5;}.cls-2{fill:#fff;}</style></defs><g id="Capa_2" data-name="Capa 2"><g id="Capa_1-2" data-name="Capa 1"><g id="Nwi0UU.tif" class="cls-1"><g id="Grupo_775" data-name="Grupo 775"><path id="Trazado_162-2" data-name="Trazado 162-2" class="cls-2" d="M22.58,45.2A22.6,22.6,0,1,1,45.2,22.62v0A22.62,22.62,0,0,1,22.58,45.2Zm0-17.46h2.29a1.2,1.2,0,0,0,1.37-1,.9.9,0,0,0,0-.23,1.53,1.53,0,0,1,.19-.66,3,3,0,0,1,.89-.91c1.08-.73,2.27-1.29,3.32-2.07a7.42,7.42,0,0,0,2.64-3.27,7.93,7.93,0,0,0-.51-6.64,9.83,9.83,0,0,0-2.28-2.73A11.45,11.45,0,0,0,26.79,8.1,11.71,11.71,0,0,0,22,7.53a12.08,12.08,0,0,0-4.39,1.14,12.9,12.9,0,0,0-5,4.64,1.12,1.12,0,0,0,.3,1.52l3,2.29a1.11,1.11,0,0,0,1.56-.06l.11-.13.83-1A5.28,5.28,0,0,1,22,13.78a5,5,0,0,1,4.28,1.43A2.11,2.11,0,0,1,26.46,18a4.18,4.18,0,0,1-1.24,1.05c-1.2.77-2.49,1.37-3.64,2.23a6.36,6.36,0,0,0-2.29,2.86,8.3,8.3,0,0,0-.35,2c-.1,1,.35,1.58,1.37,1.58Zm0,2.37a4.19,4.19,0,0,0-.19,8.37h.18a4.19,4.19,0,1,0,.19-8.37Z"/></g></g></g></g></svg>