<svg xmlns="http://www.w3.org/2000/svg" xmlns:xlink="http://www.w3.org/1999/xlink" viewBox="0 0 128 129"><defs><style>.cls-1{fill:url(#Degradado_sin_nombre_3);}.cls-2{fill:#fff;}</style><linearGradient id="Degradado_sin_nombre_3" x1="147.68" y1="-13.8" x2="147.68" y2="-14.8" gradientTransform="matrix(128, 0, 0, -129, -18838.87, -1780.4)" gradientUnits="userSpaceOnUse"><stop offset="0" stop-color="#727987"/><stop offset="1" stop-color="#484d55"/></linearGradient></defs><g id="Capa_2" data-name="Capa 2"><g id="Capa_1-2" data-name="Capa 1"><g id="Grupo_774" data-name="Grupo 774"><ellipse id="Elipse_15-2" data-name="Elipse 15-2" class="cls-1" cx="64" cy="64.5" rx="64" ry="64.5"/><g id="Grupo_773" data-name="Grupo 773"><g id="oHAYNS.tif"><g id="Grupo_16" data-name="Grupo 16"><path id="Trazado_143-2" data-name="Trazado 143-2" class="cls-2" d="M64.11,91a26,26,0,1,1,26-26v0A26,26,0,0,1,64.12,91Zm.07-40.83H61.53a1.87,1.87,0,0,0-1.27.53,2.25,2.25,0,0,0-.52,2.13C59.89,54.41,61,65,61.11,66.66a2.2,2.2,0,0,0,2.14,2H65a2.11,2.11,0,0,0,2.18-2.06v-.06c.14-1.31,1-10.09,1.1-11.11s.18-2.19.31-3.29a1.91,1.91,0,0,0-1.76-2.05h-.24C65.77,50.17,65,50.13,64.18,50.13ZM64.1,79.82a3.71,3.71,0,1,0-3.68-3.74h0a3.71,3.71,0,0,0,3.68,3.73Z"/><path id="Trazado_144-2" data-name="Trazado 144-2" class="cls-2" d="M101.26,64.53a37.85,37.85,0,0,1-2,12.53,37.23,37.23,0,0,1-5.71,10.6,1.9,1.9,0,0,1-2.64.44l-.26-.23-1.27-1.09a1.88,1.88,0,0,1-.19-2.59A33.44,33.44,0,0,0,92.87,78,31.49,31.49,0,0,0,93.32,53a34,34,0,0,0-4.1-7.14,1.85,1.85,0,0,1,.1-2.62,2.43,2.43,0,0,1,.25-.2c.33-.26.65-.55,1-.84A1.93,1.93,0,0,1,93.27,42a1.87,1.87,0,0,1,.38.46,37.11,37.11,0,0,1,5.64,10.59,38,38,0,0,1,2,11.48Z"/><path id="Trazado_145-2" data-name="Trazado 145-2" class="cls-2" d="M27,64.65a37.54,37.54,0,0,1,7.63-22.23A1.89,1.89,0,0,1,37,41.94a10.61,10.61,0,0,1,2,1.68,1.81,1.81,0,0,1-.09,2.4,31.62,31.62,0,0,0-.09,37.79,2.08,2.08,0,0,1,.46,2,2.17,2.17,0,0,1-.66.87c-.4.35-.8.7-1.21,1a1.91,1.91,0,0,1-2.7-.13,1.86,1.86,0,0,1-.21-.28,42.4,42.4,0,0,1-3.61-5.85A37,37,0,0,1,27.53,71,37.92,37.92,0,0,1,27,64.65Z"/></g></g></g></g></g></g></svg>