<svg xmlns="http://www.w3.org/2000/svg" xmlns:xlink="http://www.w3.org/1999/xlink" viewBox="0 0 752.59 225.25"><defs><style>.cls-1{fill:url(#Degradado_sin_nombre_6);}.cls-2{fill:#737a86;}</style><linearGradient id="Degradado_sin_nombre_6" x1="96.16" y1="11.1" x2="96.16" y2="233.84" gradientUnits="userSpaceOnUse"><stop offset="0" stop-color="#78bdc6"/><stop offset="0.27" stop-color="#639ac1"/><stop offset="0.47" stop-color="#5685be"/><stop offset="0.53" stop-color="#5c79b3"/><stop offset="0.72" stop-color="#6a5e9a"/><stop offset="0.88" stop-color="#724d8a"/><stop offset="1" stop-color="#754785"/></linearGradient></defs><g id="Capa_2" data-name="Capa 2"><g id="Capa_1-2" data-name="Capa 1"><path class="cls-1" d="M187.93,82.68a10,10,0,0,0-15.52,8.72L148,96.25A13.32,13.32,0,0,0,134.3,87l-9.21-49.86a18.86,18.86,0,1,0-2.91.54l9.21,49.86a13.28,13.28,0,0,0-7.21,5.31,14.19,14.19,0,0,0-1.25,2.33L56.79,75.87a13.35,13.35,0,1,0-7.89,10L67.76,119.1a10,10,0,0,0,6.7,17.78L78.85,158a18.86,18.86,0,0,0-13.42,20.63L26,187.1a13.3,13.3,0,1,0,.63,2.9l39.42-8.48a18.87,18.87,0,0,0,32.86,6.34l26.5,17.86a13.31,13.31,0,1,0,1.65-2.46L100.57,185.4a18.87,18.87,0,0,0-4.69-24.06l33.19-49.23a13.35,13.35,0,0,0,7.64,1.44l7.1,31.61a10.06,10.06,0,1,0,2.9-.64L139.6,112.9a13.35,13.35,0,0,0,9-13.75L173,94.31a10,10,0,1,0,14.94-11.63ZM77.37,136.28a10,10,0,1,0-7-18.64L51.48,84.39A13.23,13.23,0,0,0,54.71,81,13,13,0,0,0,56,78.72L122.1,98a13.37,13.37,0,0,0,4.51,12.46L93.43,159.68a18.8,18.8,0,0,0-11.67-2.29Z"/><g id="Capa_2-2" data-name="Capa 2"><g id="Capa_1-2-2" data-name="Capa 1-2"><g id="Grupo_17" data-name="Grupo 17"><path class="cls-2" d="M295.2,113l-44.37,97.28-1.71,3.41H273l7.68-16.21h41l-9.39-21.33h-23l16.21-35.84,17.07,38.4,15.36,34.13h23L315.68,113Z"/><path class="cls-2" d="M732.11,113l-29,44.37-28.16-43.52-.85-.85H652.75v99.84h20.48V150.56l29.87,46.08,1.71-3.42,27.3-42.66V213.7h20.48V113Z"/><path class="cls-2" d="M207.31,192.37V113H186.83v99.84h58.88V192.37Z"/><path class="cls-2" d="M424.06,113v59.73l-34.14-58.88-.85-.85H367.74V213.7h20.48V154l34.13,58.88.85.85h21.34V113Z"/><path class="cls-2" d="M456.48,113v99.84H477V113Z"/><path class="cls-2" d="M487.2,113v20.48h28.16v79.36h20.48V133.49H564V113Z"/><path class="cls-2" d="M642.51,133.49V113H573.39V213.7h69.12V193.22H594.73V174.45h21L610.57,154H594.73V133.49Z"/></g></g></g></g></g></svg>