<svg xmlns="http://www.w3.org/2000/svg" viewBox="0 0 84.43 22.97"><defs><style>.cls-1{fill:#fff;}</style></defs><g id="Capa_2" data-name="Capa 2"><g id="Capa_1-2" data-name="Capa 1"><g id="_0MXlnz" data-name="0MXlnz"><path class="cls-1" d="M37.05,4.84H49.14V6.68h-9l.12.25a11.92,11.92,0,0,1,1.06,2.83c0,.18.11.23.29.23h7.49v2H41.68v.84h7.46v2H41.66c-.18,0-.24.05-.28.22a11.33,11.33,0,0,1-1,2.82,1.3,1.3,0,0,0-.08.17s0,0,0,.06h8.86v2H36.89a12.05,12.05,0,0,0,.16-15.18Z"/><path class="cls-1" d="M15.63,20.91V23H15.4c-1.56,0-3.12,0-4.67,0a10.54,10.54,0,0,1-6.84-2.36A10.47,10.47,0,0,1,0,11.81,10.37,10.37,0,0,1,1.44,7.24,10.62,10.62,0,0,1,4.57,3.87,9.92,9.92,0,0,1,8.84,2.18a15.27,15.27,0,0,1,2-.14c1.49,0,3,0,4.46,0h.29V4h-.24c-1.58,0-3.17,0-4.75,0A8.25,8.25,0,0,0,3.42,8.05,8.06,8.06,0,0,0,2.2,13.14a8.47,8.47,0,0,0,6.13,7.45,7.69,7.69,0,0,0,2.19.32h5.11Z"/><path class="cls-1" d="M22.51,23H16.66c0-.09,0-.16,0-.24v-12a.25.25,0,0,1,.16-.29l5.54-2.62.16-.07Z"/><path class="cls-1" d="M74.09,23H68.24c0-.08,0-.15,0-.21v-12a.28.28,0,0,1,.17-.29l5.5-2.6.19-.08Z"/><path class="cls-1" d="M23.41,20V4.83h4.11a8.7,8.7,0,0,1,3.83.74A7.39,7.39,0,0,1,35.63,11a7.25,7.25,0,0,1-2,6.72,7.44,7.44,0,0,1-4.47,2.24A11.32,11.32,0,0,1,27.7,20H23.41Zm2-2,.21,0h2.74a6,6,0,0,0,1-.11,5.61,5.61,0,0,0,4.54-5.38,5.51,5.51,0,0,0-2.24-4.72,5,5,0,0,0-3-1.11c-1.07,0-2.15,0-3.22,0l-.06,0Z"/><path class="cls-1" d="M15.63,18.07V20H11.18A8.18,8.18,0,0,1,6.49,18.7a7.43,7.43,0,0,1-3.32-5.1A7.55,7.55,0,0,1,8.68,5.18a8.09,8.09,0,0,1,1.9-.29c1.64-.06,3.29,0,4.94-.06h.11V6.69h-.26c-1.57,0-3.14,0-4.71,0A5.72,5.72,0,0,0,7,8.07a5.53,5.53,0,0,0-1.84,3,5.47,5.47,0,0,0,1.1,4.87,5.61,5.61,0,0,0,4.61,2.14h4.77Z"/><path class="cls-1" d="M67.09,4.83V6.74H56.82a1.71,1.71,0,0,0-1.41.6,1.59,1.59,0,0,0-.25,1.77,1.62,1.62,0,0,0,1.58,1h3.95a6.29,6.29,0,0,1,4.37,1.76l.07.08a.19.19,0,0,1,0,.06H56.62a3.58,3.58,0,0,1-.43-7.14,5.88,5.88,0,0,1,.6,0h10.3Z"/><path class="cls-1" d="M52,12.86h8.45a3.47,3.47,0,0,1,2.57,1,3.41,3.41,0,0,1,.92,3.64A3.49,3.49,0,0,1,61.12,20a3.31,3.31,0,0,1-.62.05H50V18.11H60.33A1.72,1.72,0,0,0,62,17.07a1.68,1.68,0,0,0-1.64-2.3H56.54a6.31,6.31,0,0,1-4.17-1.5c-.14-.11-.27-.24-.41-.37Z"/><path class="cls-1" d="M32.23,4.83h3.18a.37.37,0,0,1,.22.12,10.51,10.51,0,0,1,2.72,5A11,11,0,0,1,38,16.34a10.24,10.24,0,0,1-2.19,3.56.41.41,0,0,1-.25.13H32.3a8.48,8.48,0,0,0,4.31-7.62A8.47,8.47,0,0,0,32.23,4.83Z"/><path class="cls-1" d="M49.14,20.92v2H33.87c.2-.15.39-.27.57-.42l1.7-1.48a.49.49,0,0,1,.29-.14H49.14Z"/><path class="cls-1" d="M33.82,2H49.14V4H36.43a.38.38,0,0,1-.24-.07A13.21,13.21,0,0,0,33.82,2Z"/><path class="cls-1" d="M51.8,4c.3-.26.55-.5.82-.7A6.36,6.36,0,0,1,56.49,2h10.6V4Z"/><path class="cls-1" d="M65.3,21A6.48,6.48,0,0,1,64,22a6.31,6.31,0,0,1-3.27.92H50V21Z"/><path class="cls-1" d="M23.42,23v-2H34.64c-.34.22-.61.42-.9.59a9.48,9.48,0,0,1-4.67,1.41c-1.76.06-3.52,0-5.27,0Z"/><path class="cls-1" d="M34.6,4H23.41V2l.14,0C25.37,2,27.19,2,29,2A9.93,9.93,0,0,1,34.6,4Z"/><path class="cls-1" d="M63.44,12.85c.73,0,1.4,0,2.07,0a.74.74,0,0,1,.82.52,6.59,6.59,0,0,1-.1,6.15C66,20,66,20,65.35,20h-2a4.52,4.52,0,0,0,.13-7.18Z"/><path class="cls-1" d="M53.75,4.83A4.56,4.56,0,0,0,53.87,12H51.48a.3.3,0,0,1-.29-.17,6.67,6.67,0,0,1-1-3.24A6.53,6.53,0,0,1,51.1,5a.3.3,0,0,1,.2-.13Z"/><path class="cls-1" d="M80.46,0a4,4,0,1,1-4,4A4,4,0,0,1,80.46,0Zm0,.49A3.51,3.51,0,1,0,83.94,4,3.5,3.5,0,0,0,80.44.49Z"/><path class="cls-1" d="M16.64,6.68c0-.61,0-1.18,0-1.75,0-.06.1-.13.17-.17l3.81-1.84L22.51,2V4Z"/><path class="cls-1" d="M68.27,6.67c0-.58,0-1.14,0-1.71,0-.06.1-.13.17-.17L72.1,3l2-1a.7.7,0,0,1,0,.12c0,.55,0,1.11,0,1.66a.25.25,0,0,1-.13.2L68.35,6.64Z"/><path class="cls-1" d="M68.27,9.47V7.75s.06-.1.1-.12l5.68-2.74h0s0,.09,0,.13c0,.54,0,1.08,0,1.62a.29.29,0,0,1-.13.22L68.35,9.44Z"/><path class="cls-1" d="M16.64,9.48c0-.59,0-1.14,0-1.7,0-.06.1-.14.17-.17L21.7,5.24l.83-.4c0,.61,0,1.19,0,1.77,0,.06-.11.13-.18.16-1.57.76-3.15,1.5-4.73,2.25Z"/><path class="cls-1" d="M78.59,1.52l.13,0h2.39a1.25,1.25,0,0,1,1,.44A1.28,1.28,0,0,1,81.39,4l-.33.08a2.59,2.59,0,0,1,1,1l.75,1.18h-.71c-.06,0-.12-.08-.16-.14L81,4.72a1.12,1.12,0,0,0-1.1-.56c-.22,0-.44,0-.69,0V6.27h-.61ZM79.2,2c0,.49,0,1,0,1.47,0,0,.09.11.13.11.57,0,1.13,0,1.7,0a.76.76,0,0,0,.74-.77.72.72,0,0,0-.72-.76C80.45,2,79.84,2,79.2,2Z"/></g></g></g></svg>