<svg xmlns="http://www.w3.org/2000/svg" viewBox="0 0 205.53 23.58"><defs><style>.cls-1,.cls-3{fill:#fff;}.cls-2,.cls-3{isolation:isolate;}.cls-3{font-size:18px;font-family:FiraSans-Bold, Fira Sans;font-weight:700;letter-spacing:0.04em;}.cls-4{letter-spacing:0.03em;}.cls-5{letter-spacing:0.02em;}.cls-6{letter-spacing:0.04em;}.cls-7{letter-spacing:0.03em;}.cls-8{letter-spacing:0.02em;}</style></defs><g id="Capa_2" data-name="Capa 2"><g id="Capa_1-2" data-name="Capa 1"><g id="Grupo_683" data-name="Grupo 683"><g id="jfO4Gp.tif"><g id="Grupo_9" data-name="Grupo 9"><path id="Trazado_5-2" data-name="Trazado 5-2" class="cls-1" d="M32.46,16.44A6.49,6.49,0,1,1,26,10a6.49,6.49,0,0,1,6.49,6.49Zm-5.41-2.09v-.81c0-.27-.09-.35-.34-.35H25.24c-.25,0-.35.09-.35.34,0,.54,0,1.07,0,1.6,0,.19-.06.23-.23.22h-1.6c-.24,0-.33.1-.33.34v1.49c0,.24.1.34.34.34h1.64c.14,0,.18,0,.18.18,0,.54,0,1.08,0,1.62,0,.27.09.36.36.36h1.44c.27,0,.36-.09.36-.35,0-.54,0-1.07,0-1.6,0-.18.06-.22.22-.21.54,0,1.08,0,1.62,0,.23,0,.33-.1.33-.33V15.7c0-.25-.09-.34-.35-.34H27.23c-.13,0-.18,0-.17-.18s0-.55,0-.83Z"/><path id="Trazado_6-2" data-name="Trazado 6-2" class="cls-1" d="M18.37,13.69a7.67,7.67,0,0,0-.16,5.07,8.11,8.11,0,0,0,2.86,4.15H9a2.42,2.42,0,0,1-2.5-2.19,12.27,12.27,0,0,1,0-2.1,5.48,5.48,0,0,1,.38-1.74,5.93,5.93,0,0,1,3.7-3.44,5.51,5.51,0,0,1,2.09-.25,3.12,3.12,0,0,1,.79.29,7.66,7.66,0,0,0,4.73.24Z"/><path id="Trazado_7-2" data-name="Trazado 7-2" class="cls-1" d="M16.24.21a5.67,5.67,0,1,1-5.67,5.68A5.67,5.67,0,0,1,16.24.21Z"/><path id="Trazado_8-2" data-name="Trazado 8-2" class="cls-1" d="M8.78,12.52a6.68,6.68,0,0,0-1.56,1.13,7.37,7.37,0,0,0-2,3.14A6.07,6.07,0,0,0,5,17.91c0,.12-.07.14-.17.14H1.6A1.64,1.64,0,0,1,0,16.45c0-.59,0-1.19,0-1.78a3.24,3.24,0,0,1,2.84-3.08c.38-.05,2.89-.05,3.76,0a3.09,3.09,0,0,1,2.09.86Z"/><path id="Trazado_9-2" data-name="Trazado 9-2" class="cls-1" d="M4.89,9.94A3.25,3.25,0,1,1,8.12,6.69h0A3.26,3.26,0,0,1,4.89,9.94Z"/></g></g><g id="REGISTRO_CLÍNICO-2" data-name="REGISTRO CLÍNICO-2" class="cls-2"><text class="cls-3" transform="translate(44.23 17.21)">R<tspan class="cls-4" x="11.88" y="0">E</tspan><tspan x="21.87" y="0">GI</tspan><tspan class="cls-5" x="40.3" y="0">S</tspan><tspan class="cls-6" x="50.99" y="0">T</tspan><tspan class="cls-7" x="61.49" y="0">R</tspan><tspan class="cls-6" x="73.13" y="0">O CLÍNI</tspan><tspan class="cls-8" x="137.32" y="0">C</tspan><tspan class="cls-6" x="148.08" y="0">O</tspan></text></g></g></g></g></svg>