<svg xmlns="http://www.w3.org/2000/svg" viewBox="0 0 18.37 12.86"><defs><style>.cls-1{fill:#fff;}</style></defs><g id="Capa_2" data-name="Capa 2"><g id="Capa_1-2" data-name="Capa 1"><g id="jfO4Gp.tif"><g id="Grupo_9" data-name="Grupo 9"><path id="Trazado_5-2" data-name="Trazado 5-2" class="cls-1" d="M18.37,9.19A3.67,3.67,0,1,1,14.7,5.51a3.68,3.68,0,0,1,3.67,3.68ZM15.31,8V7.55c0-.16-.05-.2-.19-.2h-.84c-.14,0-.19.05-.19.19,0,.3,0,.61,0,.91,0,.1,0,.12-.13.12h-.91a.17.17,0,0,0-.19.19v.85a.17.17,0,0,0,.19.19H14c.08,0,.11,0,.11.1,0,.3,0,.61,0,.92,0,.15.05.2.2.2h.82c.15,0,.2,0,.2-.2v-.9c0-.1,0-.13.12-.12h.92a.17.17,0,0,0,.19-.19V8.77c0-.15-.06-.2-.2-.2h-.93c-.08,0-.1,0-.1-.09V8Z"/><path id="Trazado_6-2" data-name="Trazado 6-2" class="cls-1" d="M10.4,7.63a4.35,4.35,0,0,0-.1,2.87,4.58,4.58,0,0,0,1.63,2.35H5.11a1.38,1.38,0,0,1-1.42-1.24,7.88,7.88,0,0,1,0-1.19,3.25,3.25,0,0,1,.22-1A3.31,3.31,0,0,1,6,7.49a3.14,3.14,0,0,1,1.18-.14,2,2,0,0,1,.45.16,4.28,4.28,0,0,0,2.67.14Z"/><path id="Trazado_7-2" data-name="Trazado 7-2" class="cls-1" d="M9.19,0A3.21,3.21,0,1,1,6,3.22,3.21,3.21,0,0,1,9.19,0Z"/><path id="Trazado_8-2" data-name="Trazado 8-2" class="cls-1" d="M5,7a3.67,3.67,0,0,0-.88.64A4.07,4.07,0,0,0,3,9.38a3.5,3.5,0,0,0-.15.64c0,.07,0,.08-.1.08H.91A.92.92,0,0,1,0,9.19c0-.33,0-.67,0-1a1.82,1.82,0,0,1,1.6-1.75c.22,0,1.64,0,2.13,0a1.74,1.74,0,0,1,1.18.49S5,7,5,7Z"/><path id="Trazado_9-2" data-name="Trazado 9-2" class="cls-1" d="M2.76,5.51A1.84,1.84,0,1,1,4.6,3.67h0A1.86,1.86,0,0,1,2.76,5.51Z"/></g></g></g></g></svg>