<svg xmlns="http://www.w3.org/2000/svg" viewBox="0 0 50.84 53.42"><defs><style>.cls-1{fill:#fff;}</style></defs><g id="Capa_2" data-name="Capa 2"><g id="Capa_1-2" data-name="Capa 1"><path id="_06-Movie_Clapper-2" data-name=" 06-Movie Clapper-2" class="cls-1" d="M10.16,22.59a5,5,0,0,0-.82-2.23l39.08-13L46.37,1.17A1.69,1.69,0,0,0,44.22.09h0L1.7,14.28A1.71,1.71,0,0,0,.62,16.43h0l1,3a5.11,5.11,0,0,0-.27,7.21,5.36,5.36,0,0,0,1.25,1V51.72a1.7,1.7,0,0,0,1.7,1.7H49.14a1.7,1.7,0,0,0,1.7-1.7h0V22.59ZM35.2,5.1l4.62-1.54a.26.26,0,0,1,.32.16.33.33,0,0,1,0,.14L39,8.32a.26.26,0,0,1-.16.18L34.26,10A.25.25,0,0,1,34,9.88a.22.22,0,0,1,0-.14L35,5.28A.26.26,0,0,1,35.2,5.1ZM22.42,9.37,27,7.83a.25.25,0,0,1,.31.16.2.2,0,0,1,0,.13l-1.1,4.47a.23.23,0,0,1-.16.17L21.47,14.3a.25.25,0,0,1-.31-.15.23.23,0,0,1,0-.14l1.1-4.47A.29.29,0,0,1,22.42,9.37ZM5.1,25.79a2.6,2.6,0,1,1,2.6-2.6,2.59,2.59,0,0,1-2.6,2.6ZM9.63,13.64l4.62-1.54a.25.25,0,0,1,.32.15.33.33,0,0,1,0,.14l-1.1,4.47a.25.25,0,0,1-.16.17L8.69,18.57a.23.23,0,0,1-.31-.15.23.23,0,0,1,0-.14l1.1-4.47a.25.25,0,0,1,.16-.17Zm4.82,14.7H9.58a.25.25,0,0,1-.24-.25.31.31,0,0,1,0-.13l2.47-3.88A.22.22,0,0,1,12,24h4.87a.25.25,0,0,1,.25.25.22.22,0,0,1,0,.13l-2.46,3.88a.22.22,0,0,1-.21.12ZM25.52,24h4.87a.25.25,0,0,1,.25.25.22.22,0,0,1,0,.13l-2.46,3.88a.27.27,0,0,1-.21.12H23.06a.25.25,0,0,1-.25-.25.28.28,0,0,1,0-.13l2.46-3.88a.25.25,0,0,1,.21-.12ZM24.05,44.42V34.28a.39.39,0,0,1,.39-.39.42.42,0,0,1,.21.06L32.72,39a.39.39,0,0,1,.12.54.34.34,0,0,1-.12.12l-8.07,5.07a.39.39,0,0,1-.54-.12A.39.39,0,0,1,24.05,44.42ZM41.41,28.34H36.54a.25.25,0,0,1-.24-.25.31.31,0,0,1,0-.13l2.47-3.88A.24.24,0,0,1,39,24h4.87a.25.25,0,0,1,.25.25.2.2,0,0,1,0,.13l-2.47,3.89A.23.23,0,0,1,41.41,28.34Z"/></g></g></svg>