<svg xmlns="http://www.w3.org/2000/svg" xmlns:xlink="http://www.w3.org/1999/xlink" viewBox="0 0 128 129"><defs><style>.cls-1{fill:url(#Degradado_sin_nombre_2);}.cls-2{fill:#fff;}</style><linearGradient id="Degradado_sin_nombre_2" x1="-78.67" y1="3.02" x2="-78.67" y2="2.02" gradientTransform="matrix(128, 0, 0, -129, 10133.94, 390.01)" gradientUnits="userSpaceOnUse"><stop offset="0" stop-color="#5ac1d2"/><stop offset="1" stop-color="#387aa3"/></linearGradient></defs><g id="Capa_2" data-name="Capa 2"><g id="Capa_1-2" data-name="Capa 1"><g id="Grupo_755" data-name="Grupo 755"><ellipse id="Elipse_15-2" data-name="Elipse 15-2" class="cls-1" cx="64" cy="64.5" rx="64" ry="64.5"/><path id="_06-Movie_Clapper-2" data-name=" 06-Movie Clapper-2" class="cls-2" d="M48.73,56.71a5.12,5.12,0,0,0-.82-2.22L87,41.44l-2-6.14a1.7,1.7,0,0,0-2.16-1.08h0L40.27,48.41a1.7,1.7,0,0,0-1.08,2.15h0l1,3a5.09,5.09,0,0,0-.27,7.21,5,5,0,0,0,1.25,1V85.84a1.7,1.7,0,0,0,1.7,1.7H87.71a1.7,1.7,0,0,0,1.7-1.7h0V56.71Zm25-17.48,4.62-1.54a.25.25,0,0,1,.31.16.2.2,0,0,1,0,.13l-1.1,4.47a.23.23,0,0,1-.16.17l-4.62,1.55a.26.26,0,0,1-.32-.16.33.33,0,0,1,0-.14l1.1-4.46A.24.24,0,0,1,73.77,39.23ZM61,43.5,65.61,42a.23.23,0,0,1,.31.15.22.22,0,0,1,0,.14l-1.1,4.47a.23.23,0,0,1-.16.17L60,48.43a.25.25,0,0,1-.31-.16.2.2,0,0,1,0-.13l1.1-4.47A.24.24,0,0,1,61,43.5ZM43.67,59.92a2.6,2.6,0,1,1,2.6-2.6,2.6,2.6,0,0,1-2.6,2.6ZM48.2,47.77l4.62-1.54a.23.23,0,0,1,.31.15.23.23,0,0,1,0,.14L52,51a.25.25,0,0,1-.16.17L47.26,52.7a.23.23,0,0,1-.31-.15.23.23,0,0,1,0-.14L48,47.94a.25.25,0,0,1,.16-.17ZM53,62.47H48.15a.25.25,0,0,1-.25-.25.28.28,0,0,1,0-.13L50.4,58.2a.26.26,0,0,1,.21-.11h4.87a.25.25,0,0,1,.25.25.33.33,0,0,1,0,.13l-2.46,3.88a.27.27,0,0,1-.21.12Zm11.07-4.38H69a.25.25,0,0,1,.25.24.33.33,0,0,1,0,.14l-2.46,3.88a.27.27,0,0,1-.21.12H61.63a.25.25,0,0,1-.25-.25.2.2,0,0,1,0-.13l2.46-3.88a.24.24,0,0,1,.21-.12ZM62.61,78.55V68.41A.39.39,0,0,1,63,68a.37.37,0,0,1,.21.06l8.08,5.07a.39.39,0,0,1,.12.54.34.34,0,0,1-.12.12l-8.08,5.07a.4.4,0,0,1-.54-.12A.42.42,0,0,1,62.61,78.55ZM80,62.47H75.11a.25.25,0,0,1-.25-.25.33.33,0,0,1,0-.13l2.46-3.88a.25.25,0,0,1,.21-.12h4.87a.25.25,0,0,1,.25.25.22.22,0,0,1,0,.13l-2.47,3.89A.26.26,0,0,1,80,62.47Z"/></g></g></g></svg>